<?xml version="1.0" standalone="no"?><!DOCTYPE svg PUBLIC "-//W3C//DTD SVG 1.1//EN" "http://www.w3.org/Graphics/SVG/1.1/DTD/svg11.dtd"><svg class="icon" width="200px" height="200.00px" viewBox="0 0 1024 1024" version="1.1" xmlns="http://www.w3.org/2000/svg"><path d="M504.9856 200.328533l-1.143467-1.1776C421.410133 115.780267 294.229333 94.344533 196.215467 151.552 49.5616 237.124267 25.463467 435.882667 141.687467 553.437867l315.136 318.737066a67.754667 67.754667 0 0 0 96.375466-0.017066l315.101867-318.72c116.224-117.589333 92.125867-316.3136-54.510933-401.885867-96.341333-56.234667-220.842667-36.488533-303.325867 43.349333l-5.4784 5.4272z m278.954667 12.936534c103.7312 64.324267 119.739733 207.291733 35.822933 292.181333L505.002667 823.790933 190.225067 505.4464c-85.111467-86.1184-67.413333-232.004267 40.3968-294.912 70.212267-40.994133 163.498667-25.258667 224.6656 36.625067l25.429333 25.719466a34.133333 34.133333 0 0 0 48.554667 0l25.429333-25.719466c61.184-61.9008 154.453333-77.6192 224.6656-36.642134l4.573867 2.730667z" fill="#333303" /><path d="M484.078933 222.6176a34.133333 34.133333 0 0 1 46.1312 0.7168l2.048 2.116267 280.064 315.067733a34.133333 34.133333 0 0 1-48.981333 47.479467l-2.048-2.116267-280.064-315.0848a34.133333 34.133333 0 0 1 2.850133-48.1792z" fill="#333303" /><path d="M392.977067 484.437333a35.003733 35.003733 0 1 1 0 70.007467 35.003733 35.003733 0 0 1 0-70.007467z m-87.534934-157.5424a70.024533 70.024533 0 1 1 0 140.032 70.024533 70.024533 0 0 1 0-140.032z" fill="#333303" /></svg>