<?xml version="1.0" standalone="no"?><!DOCTYPE svg PUBLIC "-//W3C//DTD SVG 1.1//EN" "http://www.w3.org/Graphics/SVG/1.1/DTD/svg11.dtd"><svg class="icon" width="200px" height="200.00px" viewBox="0 0 1024 1024" version="1.1" xmlns="http://www.w3.org/2000/svg"><path d="M179.5 892.2c-37.9 0-70-10.3-94-30.8l-0.7-0.6-22.1-21.7 455.7-535.2L699.6 459 432.9 772.3c-36.1 42.3-98.5 82-162.8 103.6-32.7 10.9-63.2 16.3-90.6 16.3z m-46.2-58.9c69.1 32.5 206.7-29 261.5-93.4l234.4-275.3L524 374.5 133.3 833.3zM692.8 427.8L551 305.9l143.7-167.2c7.2-8.4 19.8-9.3 28.2-2.1l111.5 95.8c8.4 7.2 9.3 19.8 2.1 28.2L692.8 427.8zM550.9 891.6h-95.6c-17.8 0-32.3-14.5-32.3-32.3 0-17.8 14.5-32.3 32.3-32.3h95.6c17.8 0 32.3 14.5 32.3 32.3 0 17.8-14.5 32.3-32.3 32.3zM771.7 530.5c-102.1 0-184.9 81.1-184.9 181.2s82.8 181.2 184.9 181.2 184.9-81.1 184.9-181.2-82.8-181.2-184.9-181.2zM843.3 817l-75.2-39.5L693 817l14.4-83.7-60.9-59.3 84.1-12.2 37.6-76.2 37.6 76.2 84.1 12.2-60.9 59.3 14.3 83.7z" /></svg>