<?xml version="1.0" standalone="no"?><!DOCTYPE svg PUBLIC "-//W3C//DTD SVG 1.1//EN" "http://www.w3.org/Graphics/SVG/1.1/DTD/svg11.dtd"><svg class="icon" width="200px" height="200.00px" viewBox="0 0 1024 1024" version="1.1" xmlns="http://www.w3.org/2000/svg"><path d="M245 112v72h-61v200c0 78.734 63.188 142.71 141.619 143.98L328 528c78.734 0 142.71-63.188 143.98-141.619L472 384V184h-61v-72h101c17.673 0 32 14.327 32 32v240c0 107.027-77.841 195.873-179.998 213.013L364 666c0 107.143 86.857 194 194 194 106.072 0 192.26-85.128 193.974-190.792L752 666v-72.969c-55.404-15.67-96-66.61-96-127.031 0-72.902 59.098-132 132-132s132 59.098 132 132c0 60.42-40.595 111.36-95.999 127.03L824 666c0 146.908-119.092 266-266 266-145.439 0-263.615-116.722-265.964-261.601L292 666l-0.001-68.987C189.842 579.874 112 491.027 112 384V144c0-17.673 14.327-32 32-32h101z m543 294c-33.137 0-60 26.863-60 60s26.863 60 60 60 60-26.863 60-60-26.863-60-60-60z" /></svg>